{"title":"My Bloody Valentine 3D (Stereoscopic Side-by-Side MKV)","uid":6671827,"size":8748781832,"categoryP":"video","categoryS":"3d","magnet":"?xt=urn:btih:c7c7b99c7860a4ff3e2e95cfc403fba473470755&amp;dn=My+Bloody+Valentine+3D+%28Stereoscopic+Side-by-Side+MKV%29&amp;tr=udp%3A%2F%2Ftracker.openbittorrent.com%3A80&amp;tr=udp%3A%2F%2Fopen.demonii.com%3A1337&amp;tr=udp%3A%2F%2Ftracker.coppersurfer.tk%3A6969&amp;tr=udp%3A%2F%2Fexodus.desync.com%3A6969","seeders":0,"leechers":0,"uploader":"L3G3ND","files":2,"time":1315902374,"description":"This is a stereoscopic 3D rip of My Bloody Valentine, for new 3D TVs or computers with Nvidia 3D Vision. Tested with Stereoscopic Player. Enjoy!\n\nTitle: My Bloody Valentine (2009)\nRated: R\nRuntime: 101 Minutes\nGenre: Crime | Horror | Mystery\n\nDescription:\nIn the mining town of Harmony, a drilling accident is caused by the son of the owner, Tom Hanniger. The mine collapses, burying six miners alive. The rescue team finds only Harry Warden alive, but in coma, and the other miners murdered by his pickax, and they conclude that Harry killed them to save oxygen for himself. On Valentine's Day, Harry awakes from his coma in the local hospital, and he kills twenty-two people, including a group of teenagers that are partying in the mine. Harry is killed by the deputy, but the only survivors are Tom Hanniger, his girlfriend Sarah, their friend Axel Palmer and his girlfriend Irene. Ten years later, Tom returns to Harmony after the death of his father. Tom has decided to sell the Hanniger Mine, and finds that Sarah has married Axel, who is now the local sheriff, and they have a son named Noah. On Valentine's Day, Harry Warden also returns, seeking revenge against those that had escaped his pickax in the past...\n-From IMDB Page: http://www.imdb.com/title/tt1179891/\n\nGeneral\nUnique ID : 208468061731790972201439885322000087823 (0x9CD57CFE32D53E63869CF708EABD3B0F)\nComplete name : [filepath]\\My Bloody Valentine 3D.mkv\nFormat : Matroska\nFile size : 8.15 GiB\nDuration : 1h 41mn\nOverall bit rate : 11.5 Mbps\nEncoded date : UTC 2010-10-09 09:47:52\nWriting application : mkvmerge v4.3.0 ('Escape from the Island') gemaakt op Sep 5 2010 10:30:51\nWriting library : libebml v1.0.0 + libmatroska v1.0.0\n\nVideo\nID : 1\nFormat : AVC\nFormat/Info : Advanced Video Codec\nFormat profile : &lt;a class=&quot;__cf_email__&quot; href=&quot;/cdn-cgi/l/email-protection&quot; data-cfemail=&quot;5c1e3d2f39303532391c1068726c&quot;&gt;[email&amp;#160;protected]&lt;/a&gt;&lt;script data-cfhash='f9e31' type=&quot;text/javascript&quot;&gt;\n/* &lt;![CDATA[ */!function(){try{var t=&quot;currentScript&quot;in document?document.currentScript:function(){for(var t=document.getElementsByTagName(&quot;script&quot;),e=t.length;e--;)if(t[e].getAttribute(&quot;data-cfhash&quot;))return t[e]}();if(t&amp;&amp;t.previousSibling){var e,r,n,i,c=t.previousSibling,a=c.getAttribute(&quot;data-cfemail&quot;);if(a){for(e=&quot;&quot;,r=parseInt(a.substr(0,2),16),n=2;a.length-n;n+=2)i=parseInt(a.substr(n,2),16)^r,e+=String.fromCharCode(i);e=document.createTextNode(e),c.parentNode.replaceChild(e,c)}t.parentNode.removeChild(t);}}catch(u){}}()/* ]]&gt; */&lt;/script&gt;\nFormat settings, CABAC : No\nFormat settings, ReFrames : 1 frame\nFormat settings, GOP : M=1, N=12\nCodec ID : V_MPEG4/ISO/AVC\nDuration : 1h 41mn\nBit rate : 10 000 Kbps\nWidth : 1 920 pixels\nHeight : 1 080 pixels\nDisplay aspect ratio : 16:9\nFrame rate : 23.976 fps\nColor space : YUV\nChroma subsampling : 4:2:0\nBit depth : 8 bits\nScan type : Progressive\nBits/(Pixel*Frame) : 0.201\nStream size : 6.92 GiB (85%)\nWriting library : x264 core 67 r1127 8d82fec\nLanguage : English\n\nAudio\nID : 2\nFormat : DTS\nFormat/Info : Digital Theater Systems\nCodec ID : A_DTS\nDuration : 1h 41mn\nBit rate mode : Constant\nBit rate : 1 510 Kbps\nChannel(s) : 6 channels\nChannel positions : Front: L C R, Side: L R, LFE\nSampling rate : 48.0 KHz\nBit depth : 24 bits\nCompression mode : Lossy\nStream size : 1.07 GiB (13%)\nLanguage : English\n\n","torrent":{"xt":"urn:btih:c7c7b99c7860a4ff3e2e95cfc403fba473470755","amp;dn":"My+Bloody+Valentine+3D+%28Stereoscopic+Side-by-Side+MKV%29","amp;tr":["udp%3A%2F%2Ftracker.openbittorrent.com%3A80","udp%3A%2F%2Fopen.demonii.com%3A1337","udp%3A%2F%2Ftracker.coppersurfer.tk%3A6969","udp%3A%2F%2Fexodus.desync.com%3A6969"],"infoHash":"c7c7b99c7860a4ff3e2e95cfc403fba473470755","infoHashBuffer":{"type":"Buffer","data":[199,199,185,156,120,96,164,255,62,46,149,207,196,3,251,164,115,71,7,85]},"announce":[],"urlList":[]}}